# xmcd
#
# Track frame offsets:
#   150
#   19645
#   40326
#   56838
#   73399
#   88357
#   101069
#   118389
#   136063
#   150982
#   166027
#   185031
#   199466
#   218763
#
# Disc length: 3111 seconds
#
# Revision: 0
# Processed by: cddbd v1.5.1PL0 Copyright (c) Steve Scherf et al.
# Submitted via: uFREEDB 1.6.2
#
DISCID=d10c250e
DTITLE=Steve - Heart and Soul
DYEAR=1900
DGENRE=Pop
TTITLE0=Dance with my father
TTITLE1=How can you mend a broken heart
TTITLE2=Yah Mo B There( Feat. bebe winans)
TTITLE3=If you don't know Me by now
TTITLE4=We've Only Just Begun
TTITLE5=Ooh Baby Baby
TTITLE6=Your Love Keeps Lifting Me(Highter and Highter)
TTITLE7=Help Me Make it Through The Night
TTITLE8=Against All Odds
TTITLE9=Hang On In There Baby
TTITLE10=I Don't Want to Talk About It
TTITLE11=Kiss And Say GoodBye
TTITLE12=Have I told you lately? That I love you?
TTITLE13=Until you come back to meThat's What I'm gotta Do
EXTD=
EXTT0=
EXTT1=
EXTT2=
EXTT3=
EXTT4=
EXTT5=
EXTT6=
EXTT7=
EXTT8=
EXTT9=
EXTT10=
EXTT11=
EXTT12=
EXTT13=
PLAYORDER=
